# xmcd
#
# Track frame offsets:
#	150
#	25478
#	48564
#	75713
#	96214
#	114542
#	132856
#	151039
#	169455
#	188400
#	211284
#	238222
#	256425
#	278015
#	301005
#	323607
#
# Disc length: 4597 seconds
#
# Revision: 0
# Processed by: cddbd v1.5.1PL0 Copyright (c) Steve Scherf et al.
# Submitted via: EasyCDDAExtractor 8.0.1.1
#
DISCID=d211f310
DTITLE=Кабриолет
DYEAR=1900
DGENRE=Chanson
TTITLE0=Грешен
TTITLE1=Без тебя одинок
TTITLE2=Зеленые глаза
TTITLE3=Не ругай меня мама
TTITLE4=Свечи
TTITLE5=Осенние дожди
TTITLE6=Тайна
TTITLE7=Убегу
TTITLE8=Что такое счастье
TTITLE9=Неповторимая
TTITLE10=Кто-то позавидовал
TTITLE11=Белый снег
TTITLE12=Ты меня не ревнуешь
TTITLE13=Улетай
TTITLE14=Цепи
TTITLE15=Розы
EXTD=
EXTT0=
EXTT1=
EXTT2=
EXTT3=
EXTT4=
EXTT5=
EXTT6=
EXTT7=
EXTT8=
EXTT9=
EXTT10=
EXTT11=
EXTT12=
EXTT13=
EXTT14=
EXTT15=
PLAYORDER=
